<svg xmlns="http://www.w3.org/2000/svg" xmlns:svg="http://www.w3.org/2000/svg" id="svg3213" width="248.756" height="152.839" version="1.1"><metadata id="metadata3218"/><g id="layer1" transform="translate(-104.70661,-14.990925)"><path style="fill:none;stroke:#000;stroke-width:1px;stroke-linecap:butt;stroke-linejoin:miter;stroke-opacity:1" id="path3991" d="m 150.51273,38.115188 0,121.019552"/><path style="fill:none;stroke:#000;stroke-width:1px;stroke-linecap:butt;stroke-linejoin:miter;stroke-opacity:1" id="path4009" d="m 134.57479,55.341675 210.36427,0"/><path id="path4011" d="m 134.56298,76.141663 210.41097,0" style="fill:none;stroke:#000;stroke-width:.97637129px;stroke-linecap:butt;stroke-linejoin:miter;stroke-opacity:1"/><path style="fill:none;stroke:#000;stroke-width:.97637129px;stroke-linecap:butt;stroke-linejoin:miter;stroke-opacity:1" id="path4013" d="m 134.56298,96.94165 210.41097,0"/><path id="path4015" d="m 134.56298,117.74164 210.41097,0" style="fill:none;stroke:#000;stroke-width:.97637129px;stroke-linecap:butt;stroke-linejoin:miter;stroke-opacity:1"/><path style="fill:none;stroke:#000;stroke-width:.97637129px;stroke-linecap:butt;stroke-linejoin:miter;stroke-opacity:1" id="path4017" d="m 134.56298,138.54163 210.41097,0"/><path id="path4021" d="m 134.56298,159.34161 210.41097,0" style="fill:none;stroke:#000;stroke-width:.97637129px;stroke-linecap:butt;stroke-linejoin:miter;stroke-opacity:1"/><path id="path4023" d="m 174.76273,38.126539 0,120.973641" style="fill:none;stroke:#000;stroke-width:1.02270234px;stroke-linecap:butt;stroke-linejoin:miter;stroke-opacity:1"/><path style="fill:none;stroke:#000;stroke-width:1.02270234px;stroke-linecap:butt;stroke-linejoin:miter;stroke-opacity:1" id="path4025" d="m 199.01273,38.126539 0,120.973641"/><path id="path4027" d="m 223.26273,38.126539 0,120.973641" style="fill:none;stroke:#000;stroke-width:1.02270234px;stroke-linecap:butt;stroke-linejoin:miter;stroke-opacity:1"/><path style="fill:none;stroke:#000;stroke-width:1.02270234px;stroke-linecap:butt;stroke-linejoin:miter;stroke-opacity:1" id="path4029" d="m 247.51273,38.126539 0,120.973641"/><path id="path4031" d="m 271.76273,38.126539 0,120.973641" style="fill:none;stroke:#000;stroke-width:1.02270234px;stroke-linecap:butt;stroke-linejoin:miter;stroke-opacity:1"/><path style="fill:none;stroke:#000;stroke-width:1.02270234px;stroke-linecap:butt;stroke-linejoin:miter;stroke-opacity:1" id="path4033" d="m 296.01273,38.126539 0,120.973641"/><path id="path4035" d="m 320.26273,38.126539 0,120.973641" style="fill:none;stroke:#000;stroke-width:1.02270234px;stroke-linecap:butt;stroke-linejoin:miter;stroke-opacity:1"/><path style="fill:none;stroke:#000;stroke-width:1.02270234px;stroke-linecap:butt;stroke-linejoin:miter;stroke-opacity:1" id="path4037" d="m 344.51273,38.126539 0,120.973641"/><path style="fill:#f95;fill-opacity:1;stroke:none" id="path4041" d="m 151.38225,65.661031 0,-9.596449 11.36422,0 11.36422,0 0,9.596449 0,9.596449 -11.36422,0 -11.36422,0 0,-9.596449 z"/><path style="fill:#f95;fill-opacity:1;stroke:none" id="path4043" d="m 175.62591,65.661031 0,-9.596449 11.36422,0 11.36422,0 0,9.596449 0,9.596449 -11.36422,0 -11.36422,0 0,-9.596449 z"/><path style="fill:#f95;fill-opacity:1;stroke:none" id="path4045" d="m 199.86958,65.661031 0,-9.596449 11.36421,0 11.36422,0 0,9.596449 0,9.596449 -11.36422,0 -11.36421,0 0,-9.596449 z"/><path style="fill:#f95;fill-opacity:1;stroke:none" id="path4047" d="m 224.11324,65.661031 0,-9.596449 11.36421,0 11.36422,0 0,9.596449 0,9.596449 -11.36422,0 -11.36421,0 0,-9.596449 z"/><path style="fill:#f95;fill-opacity:1;stroke:none" id="path4049" d="m 248.3569,65.661031 0,-9.596449 11.36421,0 11.36422,0 0,9.596449 0,9.596449 -11.36422,0 -11.36421,0 0,-9.596449 z"/><path style="fill:#f95;fill-opacity:1;stroke:none" id="path4051" d="m 272.60056,65.661031 0,-9.596449 11.36422,0 11.36421,0 0,9.596449 0,9.596449 -11.36421,0 -11.36422,0 0,-9.596449 z"/><path style="fill:#f95;fill-opacity:1;stroke:none" id="path4053" d="m 296.84422,65.661031 0,-9.596449 11.36422,0 11.36421,0 0,9.596449 0,9.596449 -11.36421,0 -11.36422,0 0,-9.596449 z"/><path style="fill:#f95;fill-opacity:1;stroke:none" id="path4055" d="m 321.08788,65.661031 0,-9.596449 11.36422,0 11.36421,0 0,9.596449 0,9.596449 -11.36421,0 -11.36422,0 0,-9.596449 z"/><path style="fill:#5df;fill-opacity:1;stroke:none" id="path4057" d="m 151.38225,86.369158 0,-9.596449 11.36422,0 11.36422,0 0,9.596449 0,9.596449 -11.36422,0 -11.36422,0 0,-9.596449 z"/><path style="fill:#5df;fill-opacity:1;stroke:none" id="path4059" d="m 175.62591,86.369158 0,-9.596449 11.36422,0 11.36422,0 0,9.596449 0,9.596449 -11.36422,0 -11.36422,0 0,-9.596449 z"/><path style="fill:#5df;fill-opacity:1;stroke:none" id="path4061" d="m 199.86958,86.369158 0,-9.596449 11.36421,0 11.36422,0 0,9.596449 0,9.596449 -11.36422,0 -11.36421,0 0,-9.596449 z"/><path style="fill:#5df;fill-opacity:1;stroke:none" id="path4063" d="m 224.11324,86.369158 0,-9.596449 11.36421,0 11.36422,0 0,9.596449 0,9.596449 -11.36422,0 -11.36421,0 0,-9.596449 z"/><path style="fill:#5df;fill-opacity:1;stroke:none" id="path4065" d="m 248.3569,86.369158 0,-9.596449 11.36421,0 11.36422,0 0,9.596449 0,9.596449 -11.36422,0 -11.36421,0 0,-9.596449 z"/><path style="fill:#5df;fill-opacity:1;stroke:none" id="path4067" d="m 272.60056,86.369158 0,-9.596449 11.36422,0 11.36421,0 0,9.596449 0,9.596449 -11.36421,0 -11.36422,0 0,-9.596449 z"/><path style="fill:#5df;fill-opacity:1;stroke:none" id="path4069" d="m 296.84422,86.369158 0,-9.596449 11.36422,0 11.36421,0 0,9.596449 0,9.596449 -11.36421,0 -11.36422,0 0,-9.596449 z"/><path style="fill:#5df;fill-opacity:1;stroke:none" id="path4071" d="m 321.08788,86.369158 0,-9.596449 11.36422,0 11.36421,0 0,9.596449 0,9.596449 -11.36421,0 -11.36422,0 0,-9.596449 z"/><path style="fill:#87de87;fill-opacity:1;stroke:none" id="path4073" d="m 151.38225,107.32982 0,-9.848984 11.36422,0 11.36422,0 0,9.848984 0,9.84899 -11.36422,0 -11.36422,0 0,-9.84899 z"/><path style="fill:#87de87;fill-opacity:1;stroke:none" id="path4075" d="m 175.62591,107.32982 0,-9.848984 11.36422,0 11.36422,0 0,9.848984 0,9.84899 -11.36422,0 -11.36422,0 0,-9.84899 z"/><path style="fill:#87de87;fill-opacity:1;stroke:none" id="path4077" d="m 199.86958,107.32982 0,-9.848984 11.36421,0 11.36422,0 0,9.848984 0,9.84899 -11.36422,0 -11.36421,0 0,-9.84899 z"/><path style="fill:#87de87;fill-opacity:1;stroke:none" id="path4079" d="m 224.11324,107.32982 0,-9.848984 11.36421,0 11.36422,0 0,9.848984 0,9.84899 -11.36422,0 -11.36421,0 0,-9.84899 z"/><path style="fill:#87de87;fill-opacity:1;stroke:none" id="path4081" d="m 248.3569,107.32982 0,-9.848984 11.36421,0 11.36422,0 0,9.848984 0,9.84899 -11.36422,0 -11.36421,0 0,-9.84899 z"/><path style="fill:#87de87;fill-opacity:1;stroke:none" id="path4083" d="m 272.60056,107.32982 0,-9.848984 11.36422,0 11.36421,0 0,9.848984 0,9.84899 -11.36421,0 -11.36422,0 0,-9.84899 z"/><path style="fill:#87de87;fill-opacity:1;stroke:none" id="path4085" d="m 296.84422,107.32982 0,-9.848984 11.36422,0 11.36421,0 0,9.848984 0,9.84899 -11.36421,0 -11.36422,0 0,-9.84899 z"/><path style="fill:#87de87;fill-opacity:1;stroke:none" id="path4087" d="m 321.08788,107.32982 0,-9.848984 11.36422,0 11.36421,0 0,9.848984 0,9.84899 -11.36421,0 -11.36422,0 0,-9.84899 z"/><path style="fill:#5df;fill-opacity:1;stroke:none" id="path4089" d="m 248.3569,148.99862 0,-9.59645 11.36421,0 11.36422,0 0,9.59645 0,9.59645 -11.36422,0 -11.36421,0 0,-9.59645 z"/><path style="fill:#5df;fill-opacity:1;stroke:none" id="path4091" d="m 272.60056,148.99862 0,-9.59645 11.36422,0 11.36421,0 0,9.59645 0,9.59645 -11.36421,0 -11.36422,0 0,-9.59645 z"/><path style="fill:#df5;fill-opacity:1;stroke:none" id="path4093" d="m 151.38225,148.99862 0,-9.59645 11.36422,0 11.36422,0 0,9.59645 0,9.59645 -11.36422,0 -11.36422,0 0,-9.59645 z"/><path style="fill:#df5;fill-opacity:1;stroke:none" id="path4095" d="m 175.62591,148.99862 0,-9.59645 11.36422,0 11.36422,0 0,9.59645 0,9.59645 -11.36422,0 -11.36422,0 0,-9.59645 z"/><path style="fill:#87de87;fill-opacity:1;stroke:none" id="path4097" d="m 199.86958,148.99862 0,-9.59645 11.36421,0 11.36422,0 0,9.59645 0,9.59645 -11.36422,0 -11.36421,0 0,-9.59645 z"/><path style="fill:#87de87;fill-opacity:1;stroke:none" id="path4099" d="m 224.11324,148.99862 0,-9.59645 11.36421,0 11.36422,0 0,9.59645 0,9.59645 -11.36422,0 -11.36421,0 0,-9.59645 z"/><path style="fill:#f95;fill-opacity:1;stroke:none" id="path4101" d="m 296.84422,148.99862 0,-9.59645 11.36422,0 11.36421,0 0,9.59645 0,9.59645 -11.36421,0 -11.36422,0 0,-9.59645 z"/><path style="fill:#f95;fill-opacity:1;stroke:none" id="path4103" d="m 321.08788,148.99862 0,-9.59645 11.36422,0 11.36421,0 0,9.59645 0,9.59645 -11.36421,0 -11.36422,0 0,-9.59645 z"/><path style="fill:#df5;fill-opacity:1;stroke:none" id="path4105" d="m 321.08788,128.29049 0,-9.59645 11.36422,0 11.36421,0 0,9.59645 0,9.59645 -11.36421,0 -11.36422,0 0,-9.59645 z"/><path style="fill:#df5;fill-opacity:1;stroke:none" id="path4107" d="m 296.84422,128.29049 0,-9.59645 11.36422,0 11.36421,0 0,9.59645 0,9.59645 -11.36421,0 -11.36422,0 0,-9.59645 z"/><path style="fill:#df5;fill-opacity:1;stroke:none" id="path4109" d="m 272.60056,128.29049 0,-9.59645 11.36422,0 11.36421,0 0,9.59645 0,9.59645 -11.36421,0 -11.36422,0 0,-9.59645 z"/><path style="fill:#df5;fill-opacity:1;stroke:none" id="path4111" d="m 248.3569,128.29049 0,-9.59645 11.36421,0 11.36422,0 0,9.59645 0,9.59645 -11.36422,0 -11.36421,0 0,-9.59645 z"/><path style="fill:#df5;fill-opacity:1;stroke:none" id="path4113" d="m 224.11324,128.29049 0,-9.59645 11.36421,0 11.36422,0 0,9.59645 0,9.59645 -11.36422,0 -11.36421,0 0,-9.59645 z"/><path style="fill:#df5;fill-opacity:1;stroke:none" id="path4115" d="m 199.86958,128.29049 0,-9.59645 11.36421,0 11.36422,0 0,9.59645 0,9.59645 -11.36422,0 -11.36421,0 0,-9.59645 z"/><path style="fill:#df5;fill-opacity:1;stroke:none" id="path4117" d="m 175.62591,128.29049 0,-9.59645 11.36422,0 11.36422,0 0,9.59645 0,9.59645 -11.36422,0 -11.36422,0 0,-9.59645 z"/><path style="fill:#df5;fill-opacity:1;stroke:none" id="path4119" d="m 151.38225,128.29049 0,-9.59645 11.36422,0 11.36422,0 0,9.59645 0,9.59645 -11.36422,0 -11.36422,0 0,-9.59645 z"/><text style="font-size:12px;font-style:normal;font-variant:normal;font-weight:400;font-stretch:normal;text-align:center;line-height:125%;letter-spacing:0;word-spacing:0;writing-mode:lr-tb;text-anchor:middle;fill:#000;fill-opacity:1;stroke:none;font-family:Sans;-inkscape-font-specification:Sans" id="text4121" x="162.489" y="70.029" xml:space="preserve"><tspan id="tspan4123" x="162.489" y="70.029">10</tspan></text><text id="text4125" x="162.489" y="90.737" xml:space="preserve" style="font-size:12px;font-style:normal;font-variant:normal;font-weight:400;font-stretch:normal;text-align:center;line-height:125%;letter-spacing:0;word-spacing:0;writing-mode:lr-tb;text-anchor:middle;fill:#000;fill-opacity:1;stroke:none;font-family:Sans;-inkscape-font-specification:Sans"><tspan id="tspan4127" x="162.489" y="90.737">10</tspan></text><text style="font-size:12px;font-style:normal;font-variant:normal;font-weight:400;font-stretch:normal;text-align:center;line-height:125%;letter-spacing:0;word-spacing:0;writing-mode:lr-tb;text-anchor:middle;fill:#000;fill-opacity:1;stroke:none;font-family:Sans;-inkscape-font-specification:Sans" id="text4129" x="162.489" y="111.698" xml:space="preserve"><tspan id="tspan4131" x="162.489" y="111.698">10</tspan></text><text id="text4133" x="162.489" y="132.659" xml:space="preserve" style="font-size:12px;font-style:normal;font-variant:normal;font-weight:400;font-stretch:normal;text-align:center;line-height:125%;letter-spacing:0;word-spacing:0;writing-mode:lr-tb;text-anchor:middle;fill:#000;fill-opacity:1;stroke:none;font-family:Sans;-inkscape-font-specification:Sans"><tspan id="tspan4135" x="162.489" y="132.659">10</tspan></text><text style="font-size:12px;font-style:normal;font-variant:normal;font-weight:400;font-stretch:normal;text-align:center;line-height:125%;letter-spacing:0;word-spacing:0;writing-mode:lr-tb;text-anchor:middle;fill:#000;fill-opacity:1;stroke:none;font-family:Sans;-inkscape-font-specification:Sans" id="text4137" x="187.037" y="70.029" xml:space="preserve"><tspan id="tspan4139" x="187.037" y="70.029">9</tspan></text><text id="text4141" x="187.037" y="90.737" xml:space="preserve" style="font-size:12px;font-style:normal;font-variant:normal;font-weight:400;font-stretch:normal;text-align:center;line-height:125%;letter-spacing:0;word-spacing:0;writing-mode:lr-tb;text-anchor:middle;fill:#000;fill-opacity:1;stroke:none;font-family:Sans;-inkscape-font-specification:Sans"><tspan id="tspan4143" x="187.037" y="90.737">9</tspan></text><text style="font-size:12px;font-style:normal;font-variant:normal;font-weight:400;font-stretch:normal;text-align:center;line-height:125%;letter-spacing:0;word-spacing:0;writing-mode:lr-tb;text-anchor:middle;fill:#000;fill-opacity:1;stroke:none;font-family:Sans;-inkscape-font-specification:Sans" id="text4145" x="187.037" y="111.698" xml:space="preserve"><tspan id="tspan4147" x="187.037" y="111.698">9</tspan></text><text id="text4149" x="187.037" y="132.659" xml:space="preserve" style="font-size:12px;font-style:normal;font-variant:normal;font-weight:400;font-stretch:normal;text-align:center;line-height:125%;letter-spacing:0;word-spacing:0;writing-mode:lr-tb;text-anchor:middle;fill:#000;fill-opacity:1;stroke:none;font-family:Sans;-inkscape-font-specification:Sans"><tspan id="tspan4151" x="187.037" y="132.659">9</tspan></text><text style="font-size:12px;font-style:normal;font-variant:normal;font-weight:400;font-stretch:normal;text-align:center;line-height:125%;letter-spacing:0;word-spacing:0;writing-mode:lr-tb;text-anchor:middle;fill:#000;fill-opacity:1;stroke:none;font-family:Sans;-inkscape-font-specification:Sans" id="text4153" x="211.24" y="70.029" xml:space="preserve"><tspan id="tspan4155" x="211.24" y="70.029">8</tspan></text><text id="text4157" x="211.24" y="90.737" xml:space="preserve" style="font-size:12px;font-style:normal;font-variant:normal;font-weight:400;font-stretch:normal;text-align:center;line-height:125%;letter-spacing:0;word-spacing:0;writing-mode:lr-tb;text-anchor:middle;fill:#000;fill-opacity:1;stroke:none;font-family:Sans;-inkscape-font-specification:Sans"><tspan id="tspan4159" x="211.24" y="90.737">8</tspan></text><text style="font-size:12px;font-style:normal;font-variant:normal;font-weight:400;font-stretch:normal;text-align:center;line-height:125%;letter-spacing:0;word-spacing:0;writing-mode:lr-tb;text-anchor:middle;fill:#000;fill-opacity:1;stroke:none;font-family:Sans;-inkscape-font-specification:Sans" id="text4161" x="211.24" y="111.698" xml:space="preserve"><tspan id="tspan4163" x="211.24" y="111.698">8</tspan></text><text id="text4165" x="211.24" y="132.659" xml:space="preserve" style="font-size:12px;font-style:normal;font-variant:normal;font-weight:400;font-stretch:normal;text-align:center;line-height:125%;letter-spacing:0;word-spacing:0;writing-mode:lr-tb;text-anchor:middle;fill:#000;fill-opacity:1;stroke:none;font-family:Sans;-inkscape-font-specification:Sans"><tspan id="tspan4167" x="211.24" y="132.659">8</tspan></text><text style="font-size:12px;font-style:normal;font-variant:normal;font-weight:400;font-stretch:normal;text-align:center;line-height:125%;letter-spacing:0;word-spacing:0;writing-mode:lr-tb;text-anchor:middle;fill:#000;fill-opacity:1;stroke:none;font-family:Sans;-inkscape-font-specification:Sans" id="text4169" x="235.501" y="70.035" xml:space="preserve"><tspan id="tspan4171" x="235.501" y="70.035">7</tspan></text><text id="text4173" x="235.501" y="90.743" xml:space="preserve" style="font-size:12px;font-style:normal;font-variant:normal;font-weight:400;font-stretch:normal;text-align:center;line-height:125%;letter-spacing:0;word-spacing:0;writing-mode:lr-tb;text-anchor:middle;fill:#000;fill-opacity:1;stroke:none;font-family:Sans;-inkscape-font-specification:Sans"><tspan id="tspan4175" x="235.501" y="90.743">7</tspan></text><text style="font-size:12px;font-style:normal;font-variant:normal;font-weight:400;font-stretch:normal;text-align:center;line-height:125%;letter-spacing:0;word-spacing:0;writing-mode:lr-tb;text-anchor:middle;fill:#000;fill-opacity:1;stroke:none;font-family:Sans;-inkscape-font-specification:Sans" id="text4177" x="235.501" y="111.704" xml:space="preserve"><tspan id="tspan4179" x="235.501" y="111.704">7</tspan></text><text id="text4181" x="235.501" y="132.665" xml:space="preserve" style="font-size:12px;font-style:normal;font-variant:normal;font-weight:400;font-stretch:normal;text-align:center;line-height:125%;letter-spacing:0;word-spacing:0;writing-mode:lr-tb;text-anchor:middle;fill:#000;fill-opacity:1;stroke:none;font-family:Sans;-inkscape-font-specification:Sans"><tspan id="tspan4183" x="235.501" y="132.665">7</tspan></text><text style="font-size:12px;font-style:normal;font-variant:normal;font-weight:400;font-stretch:normal;text-align:center;line-height:125%;letter-spacing:0;word-spacing:0;writing-mode:lr-tb;text-anchor:middle;fill:#000;fill-opacity:1;stroke:none;font-family:Sans;-inkscape-font-specification:Sans" id="text4185" x="259.683" y="70.029" xml:space="preserve"><tspan id="tspan4187" x="259.683" y="70.029">6</tspan></text><text id="text4189" x="259.683" y="90.737" xml:space="preserve" style="font-size:12px;font-style:normal;font-variant:normal;font-weight:400;font-stretch:normal;text-align:center;line-height:125%;letter-spacing:0;word-spacing:0;writing-mode:lr-tb;text-anchor:middle;fill:#000;fill-opacity:1;stroke:none;font-family:Sans;-inkscape-font-specification:Sans"><tspan id="tspan4191" x="259.683" y="90.737">6</tspan></text><text style="font-size:12px;font-style:normal;font-variant:normal;font-weight:400;font-stretch:normal;text-align:center;line-height:125%;letter-spacing:0;word-spacing:0;writing-mode:lr-tb;text-anchor:middle;fill:#000;fill-opacity:1;stroke:none;font-family:Sans;-inkscape-font-specification:Sans" id="text4193" x="259.683" y="111.698" xml:space="preserve"><tspan id="tspan4195" x="259.683" y="111.698">6</tspan></text><text id="text4197" x="259.683" y="132.659" xml:space="preserve" style="font-size:12px;font-style:normal;font-variant:normal;font-weight:400;font-stretch:normal;text-align:center;line-height:125%;letter-spacing:0;word-spacing:0;writing-mode:lr-tb;text-anchor:middle;fill:#000;fill-opacity:1;stroke:none;font-family:Sans;-inkscape-font-specification:Sans"><tspan id="tspan4199" x="259.683" y="132.659">6</tspan></text><text style="font-size:12px;font-style:normal;font-variant:normal;font-weight:400;font-stretch:normal;text-align:center;line-height:125%;letter-spacing:0;word-spacing:0;writing-mode:lr-tb;text-anchor:middle;fill:#000;fill-opacity:1;stroke:none;font-family:Sans;-inkscape-font-specification:Sans" id="text4201" x="284.029" y="69.95" xml:space="preserve"><tspan id="tspan4203" x="284.029" y="69.95">5</tspan></text><text id="text4205" x="284.029" y="90.658" xml:space="preserve" style="font-size:12px;font-style:normal;font-variant:normal;font-weight:400;font-stretch:normal;text-align:center;line-height:125%;letter-spacing:0;word-spacing:0;writing-mode:lr-tb;text-anchor:middle;fill:#000;fill-opacity:1;stroke:none;font-family:Sans;-inkscape-font-specification:Sans"><tspan id="tspan4207" x="284.029" y="90.658">5</tspan></text><text style="font-size:12px;font-style:normal;font-variant:normal;font-weight:400;font-stretch:normal;text-align:center;line-height:125%;letter-spacing:0;word-spacing:0;writing-mode:lr-tb;text-anchor:middle;fill:#000;fill-opacity:1;stroke:none;font-family:Sans;-inkscape-font-specification:Sans" id="text4209" x="284.029" y="111.619" xml:space="preserve"><tspan id="tspan4211" x="284.029" y="111.619">5</tspan></text><text id="text4213" x="284.029" y="132.58" xml:space="preserve" style="font-size:12px;font-style:normal;font-variant:normal;font-weight:400;font-stretch:normal;text-align:center;line-height:125%;letter-spacing:0;word-spacing:0;writing-mode:lr-tb;text-anchor:middle;fill:#000;fill-opacity:1;stroke:none;font-family:Sans;-inkscape-font-specification:Sans"><tspan id="tspan4215" x="284.029" y="132.58">5</tspan></text><text style="font-size:12px;font-style:normal;font-variant:normal;font-weight:400;font-stretch:normal;text-align:center;line-height:125%;letter-spacing:0;word-spacing:0;writing-mode:lr-tb;text-anchor:middle;fill:#000;fill-opacity:1;stroke:none;font-family:Sans;-inkscape-font-specification:Sans" id="text4217" x="308.255" y="70.035" xml:space="preserve"><tspan id="tspan4219" x="308.255" y="70.035">4</tspan></text><text id="text4221" x="308.255" y="90.743" xml:space="preserve" style="font-size:12px;font-style:normal;font-variant:normal;font-weight:400;font-stretch:normal;text-align:center;line-height:125%;letter-spacing:0;word-spacing:0;writing-mode:lr-tb;text-anchor:middle;fill:#000;fill-opacity:1;stroke:none;font-family:Sans;-inkscape-font-specification:Sans"><tspan id="tspan4223" x="308.255" y="90.743">4</tspan></text><text style="font-size:12px;font-style:normal;font-variant:normal;font-weight:400;font-stretch:normal;text-align:center;line-height:125%;letter-spacing:0;word-spacing:0;writing-mode:lr-tb;text-anchor:middle;fill:#000;fill-opacity:1;stroke:none;font-family:Sans;-inkscape-font-specification:Sans" id="text4225" x="308.255" y="111.704" xml:space="preserve"><tspan id="tspan4227" x="308.255" y="111.704">4</tspan></text><text id="text4229" x="308.255" y="132.665" xml:space="preserve" style="font-size:12px;font-style:normal;font-variant:normal;font-weight:400;font-stretch:normal;text-align:center;line-height:125%;letter-spacing:0;word-spacing:0;writing-mode:lr-tb;text-anchor:middle;fill:#000;fill-opacity:1;stroke:none;font-family:Sans;-inkscape-font-specification:Sans"><tspan id="tspan4231" x="308.255" y="132.665">4</tspan></text><text style="font-size:12px;font-style:normal;font-variant:normal;font-weight:400;font-stretch:normal;text-align:center;line-height:125%;letter-spacing:0;word-spacing:0;writing-mode:lr-tb;text-anchor:middle;fill:#000;fill-opacity:1;stroke:none;font-family:Sans;-inkscape-font-specification:Sans" id="text4237" x="332.478" y="70.029" xml:space="preserve"><tspan id="tspan4239" x="332.478" y="70.029">3</tspan></text><text id="text4241" x="332.478" y="90.737" xml:space="preserve" style="font-size:12px;font-style:normal;font-variant:normal;font-weight:400;font-stretch:normal;text-align:center;line-height:125%;letter-spacing:0;word-spacing:0;writing-mode:lr-tb;text-anchor:middle;fill:#000;fill-opacity:1;stroke:none;font-family:Sans;-inkscape-font-specification:Sans"><tspan id="tspan4243" x="332.478" y="90.737">3</tspan></text><text style="font-size:12px;font-style:normal;font-variant:normal;font-weight:400;font-stretch:normal;text-align:center;line-height:125%;letter-spacing:0;word-spacing:0;writing-mode:lr-tb;text-anchor:middle;fill:#000;fill-opacity:1;stroke:none;font-family:Sans;-inkscape-font-specification:Sans" id="text4245" x="332.478" y="111.698" xml:space="preserve"><tspan id="tspan4247" x="332.478" y="111.698">3</tspan></text><text id="text4249" x="332.478" y="132.659" xml:space="preserve" style="font-size:12px;font-style:normal;font-variant:normal;font-weight:400;font-stretch:normal;text-align:center;line-height:125%;letter-spacing:0;word-spacing:0;writing-mode:lr-tb;text-anchor:middle;fill:#000;fill-opacity:1;stroke:none;font-family:Sans;-inkscape-font-specification:Sans"><tspan id="tspan4251" x="332.478" y="132.659">3</tspan></text><text style="font-size:12px;font-style:normal;font-variant:normal;font-weight:400;font-stretch:normal;text-align:center;line-height:125%;letter-spacing:0;word-spacing:0;writing-mode:lr-tb;text-anchor:middle;fill:#000;fill-opacity:1;stroke:none;font-family:Sans;-inkscape-font-specification:Sans" id="text4253" x="162.911" y="153.452" xml:space="preserve"><tspan id="tspan4255" x="162.911" y="153.452">2</tspan></text><text id="text4257" x="211.398" y="153.452" xml:space="preserve" style="font-size:12px;font-style:normal;font-variant:normal;font-weight:400;font-stretch:normal;text-align:center;line-height:125%;letter-spacing:0;word-spacing:0;writing-mode:lr-tb;text-anchor:middle;fill:#000;fill-opacity:1;stroke:none;font-family:Sans;-inkscape-font-specification:Sans"><tspan id="tspan4259" x="211.398" y="153.452">2</tspan></text><text style="font-size:12px;font-style:normal;font-variant:normal;font-weight:400;font-stretch:normal;text-align:center;line-height:125%;letter-spacing:0;word-spacing:0;writing-mode:lr-tb;text-anchor:middle;fill:#000;fill-opacity:1;stroke:none;font-family:Sans;-inkscape-font-specification:Sans" id="text4261" x="259.885" y="153.452" xml:space="preserve"><tspan id="tspan4263" x="259.885" y="153.452">2</tspan></text><text id="text4265" x="308.373" y="153.452" xml:space="preserve" style="font-size:12px;font-style:normal;font-variant:normal;font-weight:400;font-stretch:normal;text-align:center;line-height:125%;letter-spacing:0;word-spacing:0;writing-mode:lr-tb;text-anchor:middle;fill:#000;fill-opacity:1;stroke:none;font-family:Sans;-inkscape-font-specification:Sans"><tspan id="tspan4267" x="308.373" y="153.452">2</tspan></text><text style="font-size:12px;font-style:normal;font-variant:normal;font-weight:400;font-stretch:normal;text-align:center;line-height:125%;letter-spacing:0;word-spacing:0;writing-mode:lr-tb;text-anchor:middle;fill:#000;fill-opacity:1;stroke:none;font-family:Sans;-inkscape-font-specification:Sans" id="text4269" x="186.888" y="153.373" xml:space="preserve"><tspan id="tspan4271" x="186.888" y="153.373">1</tspan></text><text id="text4273" x="235.375" y="153.373" xml:space="preserve" style="font-size:12px;font-style:normal;font-variant:normal;font-weight:400;font-stretch:normal;text-align:center;line-height:125%;letter-spacing:0;word-spacing:0;writing-mode:lr-tb;text-anchor:middle;fill:#000;fill-opacity:1;stroke:none;font-family:Sans;-inkscape-font-specification:Sans"><tspan id="tspan4275" x="235.375" y="153.373">1</tspan></text><text style="font-size:12px;font-style:normal;font-variant:normal;font-weight:400;font-stretch:normal;text-align:center;line-height:125%;letter-spacing:0;word-spacing:0;writing-mode:lr-tb;text-anchor:middle;fill:#000;fill-opacity:1;stroke:none;font-family:Sans;-inkscape-font-specification:Sans" id="text4277" x="283.862" y="153.373" xml:space="preserve"><tspan id="tspan4279" x="283.862" y="153.373">1</tspan></text><text id="text4281" x="332.35" y="153.373" xml:space="preserve" style="font-size:12px;font-style:normal;font-variant:normal;font-weight:400;font-stretch:normal;text-align:center;line-height:125%;letter-spacing:0;word-spacing:0;writing-mode:lr-tb;text-anchor:middle;fill:#000;fill-opacity:1;stroke:none;font-family:Sans;-inkscape-font-specification:Sans"><tspan id="tspan4283" x="332.35" y="153.373">1</tspan></text><text style="font-size:12px;font-style:normal;font-variant:normal;font-weight:400;font-stretch:normal;text-align:center;line-height:125%;letter-spacing:0;word-spacing:0;writing-mode:lr-tb;text-anchor:middle;fill:#000;fill-opacity:1;stroke:none;font-family:Sans;-inkscape-font-specification:Sans" id="text4309" x="141.119" y="70.035" xml:space="preserve"><tspan id="tspan4311" x="141.119" y="70.035">1</tspan></text><text style="font-size:12px;font-style:normal;font-variant:normal;font-weight:400;font-stretch:normal;text-align:center;line-height:125%;letter-spacing:0;word-spacing:0;writing-mode:lr-tb;text-anchor:middle;fill:#000;fill-opacity:1;stroke:none;font-family:Sans;-inkscape-font-specification:Sans" id="text4313" x="141.385" y="90.822" xml:space="preserve"><tspan id="tspan4315" x="141.385" y="90.822">2</tspan></text><text style="font-size:12px;font-style:normal;font-variant:normal;font-weight:400;font-stretch:normal;text-align:center;line-height:125%;letter-spacing:0;word-spacing:0;writing-mode:lr-tb;text-anchor:middle;fill:#000;fill-opacity:1;stroke:none;font-family:Sans;-inkscape-font-specification:Sans" id="text4317" x="141.248" y="111.698" xml:space="preserve"><tspan id="tspan4319" x="141.248" y="111.698">3</tspan></text><text style="font-size:12px;font-style:normal;font-variant:normal;font-weight:400;font-stretch:normal;text-align:center;line-height:125%;letter-spacing:0;word-spacing:0;writing-mode:lr-tb;text-anchor:middle;fill:#000;fill-opacity:1;stroke:none;font-family:Sans;-inkscape-font-specification:Sans" id="text4321" x="141.268" y="132.665" xml:space="preserve"><tspan id="tspan4323" x="141.268" y="132.665">4</tspan></text><text style="font-size:12px;font-style:normal;font-variant:normal;font-weight:400;font-stretch:normal;text-align:center;line-height:125%;letter-spacing:0;word-spacing:0;writing-mode:lr-tb;text-anchor:middle;fill:#000;fill-opacity:1;stroke:none;font-family:Sans;-inkscape-font-specification:Sans" id="text4325" x="141.286" y="153.288" xml:space="preserve"><tspan id="tspan4327" x="141.286" y="153.288">5</tspan></text><text style="font-size:12px;font-style:normal;font-variant:normal;font-weight:400;font-stretch:normal;text-align:center;line-height:125%;letter-spacing:0;word-spacing:0;writing-mode:lr-tb;text-anchor:middle;fill:#000;fill-opacity:1;stroke:none;font-family:Sans;-inkscape-font-specification:Sans" id="text4329" x="-107.58" y="121.455" transform="matrix(0,-1,1,0,0,0)" xml:space="preserve"><tspan id="tspan4331" x="-107.58" y="121.455">Bytes</tspan></text><text style="font-size:12px;font-style:normal;font-variant:normal;font-weight:400;font-stretch:normal;text-align:center;line-height:125%;letter-spacing:0;word-spacing:0;writing-mode:lr-tb;text-anchor:middle;fill:#000;fill-opacity:1;stroke:none;font-family:Sans;-inkscape-font-specification:Sans" id="text4333" x="162.752" y="49.028" xml:space="preserve"><tspan id="tspan4335" x="162.752" y="49.028">8</tspan></text><text style="font-size:12px;font-style:normal;font-variant:normal;font-weight:400;font-stretch:normal;text-align:center;line-height:125%;letter-spacing:0;word-spacing:0;writing-mode:lr-tb;text-anchor:middle;fill:#000;fill-opacity:1;stroke:none;font-family:Sans;-inkscape-font-specification:Sans" id="text4337" x="187.023" y="49.034" xml:space="preserve"><tspan id="tspan4339" x="187.023" y="49.034">7</tspan></text><text style="font-size:12px;font-style:normal;font-variant:normal;font-weight:400;font-stretch:normal;text-align:center;line-height:125%;letter-spacing:0;word-spacing:0;writing-mode:lr-tb;text-anchor:middle;fill:#000;fill-opacity:1;stroke:none;font-family:Sans;-inkscape-font-specification:Sans" id="text4341" x="211.235" y="49.028" xml:space="preserve"><tspan id="tspan4343" x="211.235" y="49.028">6</tspan></text><text style="font-size:12px;font-style:normal;font-variant:normal;font-weight:400;font-stretch:normal;text-align:center;line-height:125%;letter-spacing:0;word-spacing:0;writing-mode:lr-tb;text-anchor:middle;fill:#000;fill-opacity:1;stroke:none;font-family:Sans;-inkscape-font-specification:Sans" id="text4345" x="235.629" y="48.949" xml:space="preserve"><tspan id="tspan4347" x="235.629" y="48.949">5</tspan></text><text style="font-size:12px;font-style:normal;font-variant:normal;font-weight:400;font-stretch:normal;text-align:center;line-height:125%;letter-spacing:0;word-spacing:0;writing-mode:lr-tb;text-anchor:middle;fill:#000;fill-opacity:1;stroke:none;font-family:Sans;-inkscape-font-specification:Sans" id="text4349" x="260.07" y="49.034" xml:space="preserve"><tspan id="tspan4351" x="260.07" y="49.034">4</tspan></text><text style="font-size:12px;font-style:normal;font-variant:normal;font-weight:400;font-stretch:normal;text-align:center;line-height:125%;letter-spacing:0;word-spacing:0;writing-mode:lr-tb;text-anchor:middle;fill:#000;fill-opacity:1;stroke:none;font-family:Sans;-inkscape-font-specification:Sans" id="text4353" x="284.558" y="49.028" xml:space="preserve"><tspan id="tspan4355" x="284.558" y="49.028">3</tspan></text><text style="font-size:12px;font-style:normal;font-variant:normal;font-weight:400;font-stretch:normal;text-align:center;line-height:125%;letter-spacing:0;word-spacing:0;writing-mode:lr-tb;text-anchor:middle;fill:#000;fill-opacity:1;stroke:none;font-family:Sans;-inkscape-font-specification:Sans" id="text4357" x="308.794" y="49.113" xml:space="preserve"><tspan id="tspan4359" x="308.794" y="49.113">2</tspan></text><text style="font-size:12px;font-style:normal;font-variant:normal;font-weight:400;font-stretch:normal;text-align:center;line-height:125%;letter-spacing:0;word-spacing:0;writing-mode:lr-tb;text-anchor:middle;fill:#000;fill-opacity:1;stroke:none;font-family:Sans;-inkscape-font-specification:Sans" id="text4361" x="332.35" y="49.034" xml:space="preserve"><tspan id="tspan4363" x="332.35" y="49.034">1</tspan></text><text style="font-size:12px;font-style:normal;font-variant:normal;font-weight:400;font-stretch:normal;text-align:center;line-height:125%;letter-spacing:0;word-spacing:0;writing-mode:lr-tb;text-anchor:middle;fill:#000;fill-opacity:1;stroke:none;font-family:Sans;-inkscape-font-specification:Sans" id="text4365" x="247.92" y="32.108" xml:space="preserve"><tspan id="tspan4367" x="247.92" y="32.108">Bits</tspan></text><text style="font-size:12px;font-style:normal;font-variant:normal;font-weight:400;font-stretch:normal;text-align:center;line-height:125%;letter-spacing:0;word-spacing:0;writing-mode:lr-tb;text-anchor:middle;fill:#000;fill-opacity:1;stroke:none;font-family:Sans;-inkscape-font-specification:Sans" id="text4403" x="162.635" y="37.159" xml:space="preserve"><tspan id="tspan4405" x="162.635" y="37.159" style="font-size:8px">MSB</tspan></text><text id="text4407" x="332.341" y="37.159" xml:space="preserve" style="font-size:12px;font-style:normal;font-variant:normal;font-weight:400;font-stretch:normal;text-align:center;line-height:125%;letter-spacing:0;word-spacing:0;writing-mode:lr-tb;text-anchor:middle;fill:#000;fill-opacity:1;stroke:none;font-family:Sans;-inkscape-font-specification:Sans"><tspan style="font-size:8px" id="tspan4409" x="332.341" y="37.159">LSB</tspan></text></g></svg>