<svg xmlns="http://www.w3.org/2000/svg" xmlns:svg="http://www.w3.org/2000/svg" id="svg2812" width="700" height="455" version="1.0"><metadata id="metadata2817"/><g id="layer2" transform="translate(0.5,-1.862185)" style="opacity:1;display:inline"><path style="fill:#0f0;fill-opacity:1;fill-rule:evenodd;stroke:#000;stroke-width:1px;stroke-linecap:butt;stroke-linejoin:miter;stroke-opacity:1" id="path2911" d="M 0,202.36218 L 43.3,177.36218 L 86.6,202.36218 L 43.3,227.36218 L 0,202.36218 z"/><path style="fill:#0f0;fill-opacity:1;fill-rule:evenodd;stroke:#000;stroke-width:1px;stroke-linecap:butt;stroke-linejoin:miter;stroke-opacity:1" id="path2913" d="M 0,202.36218 L 0,227.36218 L 43.3,252.36218 L 43.3,227.36218 L 0,202.36218 z"/><path style="fill:red;fill-opacity:1;fill-rule:evenodd;stroke:#000;stroke-width:1px;stroke-linecap:butt;stroke-linejoin:miter;stroke-opacity:1" id="path2915" d="M 43.3,227.36218 L 86.6,252.36218 L 86.6,277.36218 L 43.3,252.36218 L 43.3,227.36218 z"/><path style="fill:red;fill-opacity:1;fill-rule:evenodd;stroke:#000;stroke-width:1px;stroke-linecap:butt;stroke-linejoin:miter;stroke-opacity:1" id="path2917" d="M 43.3,227.36218 L 86.6,202.36218 L 129.9,227.36218 L 86.6,252.36218 L 43.3,227.36218 z"/><path style="opacity:1;fill:#00f;fill-opacity:1;fill-rule:evenodd;stroke:#000;stroke-width:1px;stroke-linecap:butt;stroke-linejoin:miter;stroke-opacity:1;display:inline" id="path2919" d="M 43.3,177.36218 L 86.6,152.36218 L 129.9,177.36218 L 86.6,202.36218 L 43.3,177.36218 z"/><path style="opacity:1;fill:#0f0;fill-opacity:1;fill-rule:evenodd;stroke:#000;stroke-width:1px;stroke-linecap:butt;stroke-linejoin:miter;stroke-opacity:1;display:inline" id="path2921" d="M 86.6,202.36218 L 129.9,177.36218 L 173.2,202.36218 L 129.9,227.36218 L 86.6,202.36218 z"/><path style="opacity:1;fill:#0f0;fill-opacity:1;fill-rule:evenodd;stroke:#000;stroke-width:1px;stroke-linecap:butt;stroke-linejoin:miter;stroke-opacity:1;display:inline" id="path2923" d="M 86.6,252.36218 L 129.9,227.36218 L 173.2,252.36218 L 129.9,277.36218 L 86.6,252.36218 z"/><path style="opacity:1;fill:#0f0;fill-opacity:1;fill-rule:evenodd;stroke:#000;stroke-width:1px;stroke-linecap:butt;stroke-linejoin:miter;stroke-opacity:1;display:inline" id="path2925" d="M 86.6,252.36218 L 86.6,277.36218 L 129.9,302.36218 L 129.9,277.36218 L 86.6,252.36218 z"/><path style="opacity:1;fill:#00f;fill-opacity:1;fill-rule:evenodd;stroke:#000;stroke-width:1px;stroke-linecap:butt;stroke-linejoin:miter;stroke-opacity:1;display:inline" id="path2927" d="M 129.9,227.36218 L 173.2,202.36218 L 216.5,227.36218 L 173.2,252.36218 L 129.9,227.36218 z"/><path style="opacity:1;fill:red;fill-opacity:1;fill-rule:evenodd;stroke:#000;stroke-width:1px;stroke-linecap:butt;stroke-linejoin:miter;stroke-opacity:1;display:inline" id="path2929" d="M 129.9,277.36218 L 173.2,302.36218 L 173.2,327.36218 L 129.9,302.36218 L 129.9,277.36218 z"/><path style="opacity:1;fill:red;fill-opacity:1;fill-rule:evenodd;stroke:#000;stroke-width:1px;stroke-linecap:butt;stroke-linejoin:miter;stroke-opacity:1;display:inline" id="path2931" d="M 129.9,277.36218 L 173.2,252.36218 L 216.5,277.36218 L 173.2,302.36218 L 129.9,277.36218 z"/><path style="opacity:1;fill:#0f0;fill-opacity:1;fill-rule:evenodd;stroke:#000;stroke-width:1px;stroke-linecap:butt;stroke-linejoin:miter;stroke-opacity:1;display:inline" id="path2933" d="M 173.2,252.36218 L 216.5,227.36218 L 259.8,252.36218 L 216.5,277.36218 L 173.2,252.36218 z"/><path style="opacity:1;fill:#0f0;fill-opacity:1;fill-rule:evenodd;stroke:#000;stroke-width:1px;stroke-linecap:butt;stroke-linejoin:miter;stroke-opacity:1;display:inline" id="path2935" d="M 173.2,302.36218 L 216.5,277.36218 L 259.8,302.36218 L 216.5,327.36218 L 173.2,302.36218 z"/><path style="opacity:1;fill:#0f0;fill-opacity:1;fill-rule:evenodd;stroke:#000;stroke-width:1px;stroke-linecap:butt;stroke-linejoin:miter;stroke-opacity:1;display:inline" id="path2937" d="M 173.2,302.36218 L 173.2,327.36218 L 216.5,352.36218 L 216.5,327.36218 L 173.2,302.36218 z"/><path style="opacity:1;fill:#00f;fill-opacity:1;fill-rule:evenodd;stroke:#000;stroke-width:1px;stroke-linecap:butt;stroke-linejoin:miter;stroke-opacity:1;display:inline" id="path2939" d="M 216.5,277.36218 L 259.8,252.36218 L 303.1,277.36218 L 259.8,302.36218 L 216.5,277.36218 z"/><path style="opacity:1;fill:red;fill-opacity:1;fill-rule:evenodd;stroke:#000;stroke-width:1px;stroke-linecap:butt;stroke-linejoin:miter;stroke-opacity:1;display:inline" id="path2941" d="M 216.5,327.36218 L 259.8,352.36218 L 259.8,377.36218 L 216.5,352.36218 L 216.5,327.36218 z"/><path style="opacity:1;fill:red;fill-opacity:1;fill-rule:evenodd;stroke:#000;stroke-width:1px;stroke-linecap:butt;stroke-linejoin:miter;stroke-opacity:1;display:inline" id="path2943" d="M 216.5,327.36218 L 259.8,302.36218 L 303.1,327.36218 L 259.8,352.36218 L 216.5,327.36218 z"/><path style="opacity:1;fill:#0f0;fill-opacity:1;fill-rule:evenodd;stroke:#000;stroke-width:1px;stroke-linecap:butt;stroke-linejoin:miter;stroke-opacity:1;display:inline" id="path2945" d="M 259.8,302.36218 L 303.1,277.36218 L 346.4,302.36218 L 303.1,327.36218 L 259.8,302.36218 z"/><path style="opacity:1;fill:#0f0;fill-opacity:1;fill-rule:evenodd;stroke:#000;stroke-width:1px;stroke-linecap:butt;stroke-linejoin:miter;stroke-opacity:1;display:inline" id="path2947" d="M 259.8,352.36218 L 303.1,327.36218 L 346.4,352.36218 L 303.1,377.36218 L 259.8,352.36218 z"/><path style="opacity:1;fill:#0f0;fill-opacity:1;fill-rule:evenodd;stroke:#000;stroke-width:1px;stroke-linecap:butt;stroke-linejoin:miter;stroke-opacity:1;display:inline" id="path2949" d="M 259.8,352.36218 L 259.8,377.36218 L 303.1,402.36218 L 303.1,377.36218 L 259.8,352.36218 z"/><path style="opacity:1;fill:gray;fill-opacity:1;fill-rule:evenodd;stroke:#000;stroke-width:1px;stroke-linecap:butt;stroke-linejoin:miter;stroke-opacity:1;display:inline" id="path3073" d="M 346.4,327.36218 L 389.7,302.36218 L 433,327.36218 L 389.7,352.36218 L 346.4,327.36218 z"/><path style="opacity:1;fill:red;fill-opacity:1;fill-rule:evenodd;stroke:#000;stroke-width:1px;stroke-linecap:butt;stroke-linejoin:miter;stroke-opacity:1;display:inline" id="path3037" d="M 389.7,277.36218 L 389.7,302.36218 L 346.4,327.36217 L 346.4,302.36218 L 389.7,277.36218 z"/><path style="fill:#0f0;fill-opacity:1;fill-rule:evenodd;stroke:#000;stroke-width:1px;stroke-linecap:butt;stroke-linejoin:miter;stroke-opacity:1" id="path2953" d="M 303.1,402.36218 L 346.4,377.36218 L 346.4,352.36218 L 303.1,377.36218 L 303.1,402.36218 z"/><path style="fill:#00f;fill-opacity:1;fill-rule:evenodd;stroke:#000;stroke-width:1px;stroke-linecap:butt;stroke-linejoin:miter;stroke-opacity:1" id="path2955" d="M 346.4,377.36218 L 389.7,352.36218 L 389.7,327.36218 L 346.4,352.36218 L 346.4,377.36218 z"/><path style="opacity:1;fill:#0f0;fill-opacity:1;fill-rule:evenodd;stroke:#000;stroke-width:1px;stroke-linecap:butt;stroke-linejoin:miter;stroke-opacity:1;display:inline" id="path2957" d="M 86.6,152.36218 L 129.9,127.36218 L 173.2,152.36218 L 129.9,177.36218 L 86.6,152.36218 z"/><path style="opacity:1;fill:red;fill-opacity:1;fill-rule:evenodd;stroke:#000;stroke-width:1px;stroke-linecap:butt;stroke-linejoin:miter;stroke-opacity:1;display:inline" id="path2959" d="M 129.9,177.36218 L 173.2,152.36218 L 216.5,177.36218 L 173.2,202.36218 L 129.9,177.36218 z"/><path style="opacity:1;fill:#00f;fill-opacity:1;fill-rule:evenodd;stroke:#000;stroke-width:1px;stroke-linecap:butt;stroke-linejoin:miter;stroke-opacity:1;display:inline" id="path2961" d="M 129.9,127.36218 L 173.2,102.36218 L 216.5,127.36218 L 173.2,152.36218 L 129.9,127.36218 z"/><path style="opacity:1;fill:#0f0;fill-opacity:1;fill-rule:evenodd;stroke:#000;stroke-width:1px;stroke-linecap:butt;stroke-linejoin:miter;stroke-opacity:1;display:inline" id="path2963" d="M 173.2,152.36218 L 216.5,127.36218 L 259.8,152.36218 L 216.5,177.36218 L 173.2,152.36218 z"/><path style="opacity:1;fill:#0f0;fill-opacity:1;fill-rule:evenodd;stroke:#000;stroke-width:1px;stroke-linecap:butt;stroke-linejoin:miter;stroke-opacity:1;display:inline" id="path2965" d="M 173.2,202.36218 L 216.5,177.36218 L 259.8,202.36218 L 216.5,227.36218 L 173.2,202.36218 z"/><path style="opacity:1;fill:#00f;fill-opacity:1;fill-rule:evenodd;stroke:#000;stroke-width:1px;stroke-linecap:butt;stroke-linejoin:miter;stroke-opacity:1;display:inline" id="path2967" d="M 216.5,177.36218 L 259.8,152.36218 L 303.1,177.36218 L 259.8,202.36218 L 216.5,177.36218 z"/><path style="opacity:1;fill:red;fill-opacity:1;fill-rule:evenodd;stroke:#000;stroke-width:1px;stroke-linecap:butt;stroke-linejoin:miter;stroke-opacity:1;display:inline" id="path2969" d="M 216.5,227.36218 L 259.8,202.36218 L 303.1,227.36218 L 259.8,252.36218 L 216.5,227.36218 z"/><path style="opacity:1;fill:#0f0;fill-opacity:1;fill-rule:evenodd;stroke:#000;stroke-width:1px;stroke-linecap:butt;stroke-linejoin:miter;stroke-opacity:1;display:inline" id="path2971" d="M 259.8,202.36218 L 303.1,177.36218 L 346.4,202.36218 L 303.1,227.36218 L 259.8,202.36218 z"/><path style="opacity:1;fill:#0f0;fill-opacity:1;fill-rule:evenodd;stroke:#000;stroke-width:1px;stroke-linecap:butt;stroke-linejoin:miter;stroke-opacity:1;display:inline" id="path2973" d="M 259.8,252.36218 L 303.1,227.36218 L 346.4,252.36218 L 303.1,277.36218 L 259.8,252.36218 z"/><path style="opacity:1;fill:#00f;fill-opacity:1;fill-rule:evenodd;stroke:#000;stroke-width:1px;stroke-linecap:butt;stroke-linejoin:miter;stroke-opacity:1;display:inline" id="path2975" d="M 303.1,227.36218 L 346.4,202.36218 L 389.7,227.36218 L 346.4,252.36218 L 303.1,227.36218 z"/><path style="opacity:1;fill:red;fill-opacity:1;fill-rule:evenodd;stroke:#000;stroke-width:1px;stroke-linecap:butt;stroke-linejoin:miter;stroke-opacity:1;display:inline" id="path2977" d="M 303.1,277.36218 L 346.4,252.36218 L 389.7,277.36218 L 346.4,302.36218 L 303.1,277.36218 z"/><path style="opacity:1;fill:#0f0;fill-opacity:1;fill-rule:evenodd;stroke:#000;stroke-width:1px;stroke-linecap:butt;stroke-linejoin:miter;stroke-opacity:1;display:inline" id="path2979" d="M 346.4,252.36218 L 389.7,227.36218 L 433,252.36218 L 389.7,277.36218 L 346.4,252.36218 z"/><path style="opacity:1;fill:#0f0;fill-opacity:1;fill-rule:evenodd;stroke:#000;stroke-width:1px;stroke-linecap:butt;stroke-linejoin:miter;stroke-opacity:1;display:inline" id="path2981" d="M 173.2,102.36218 L 216.5,77.362186 L 259.8,102.36218 L 216.5,127.36218 L 173.2,102.36218 z"/><path style="opacity:1;fill:red;fill-opacity:1;fill-rule:evenodd;stroke:#000;stroke-width:1px;stroke-linecap:butt;stroke-linejoin:miter;stroke-opacity:1;display:inline" id="path2983" d="M 216.5,127.36218 L 259.8,102.36218 L 303.1,127.36218 L 259.8,152.36218 L 216.5,127.36218 z"/><path style="opacity:1;fill:#00f;fill-opacity:1;fill-rule:evenodd;stroke:#000;stroke-width:1px;stroke-linecap:butt;stroke-linejoin:miter;stroke-opacity:1;display:inline" id="path2985" d="M 216.5,77.362186 L 259.8,52.362186 L 303.1,77.362186 L 259.8,102.36218 L 216.5,77.362186 z"/><path style="opacity:1;fill:#0f0;fill-opacity:1;fill-rule:evenodd;stroke:#000;stroke-width:1px;stroke-linecap:butt;stroke-linejoin:miter;stroke-opacity:1;display:inline" id="path2987" d="M 259.8,102.36218 L 303.1,77.362186 L 346.4,102.36218 L 303.1,127.36218 L 259.8,102.36218 z"/><path style="opacity:1;fill:#0f0;fill-opacity:1;fill-rule:evenodd;stroke:#000;stroke-width:1px;stroke-linecap:butt;stroke-linejoin:miter;stroke-opacity:1;display:inline" id="path2989" d="M 259.8,152.36218 L 303.1,127.36218 L 346.4,152.36218 L 303.1,177.36218 L 259.8,152.36218 z"/><path style="opacity:1;fill:#00f;fill-opacity:1;fill-rule:evenodd;stroke:#000;stroke-width:1px;stroke-linecap:butt;stroke-linejoin:miter;stroke-opacity:1;display:inline" id="path2991" d="M 303.1,127.36218 L 346.4,102.36218 L 389.7,127.36218 L 346.4,152.36218 L 303.1,127.36218 z"/><path style="opacity:1;fill:red;fill-opacity:1;fill-rule:evenodd;stroke:#000;stroke-width:1px;stroke-linecap:butt;stroke-linejoin:miter;stroke-opacity:1;display:inline" id="path2993" d="M 303.1,177.36218 L 346.4,152.36218 L 389.7,177.36218 L 346.4,202.36218 L 303.1,177.36218 z"/><path style="opacity:1;fill:gray;fill-opacity:1;fill-rule:evenodd;stroke:#000;stroke-width:1px;stroke-linecap:butt;stroke-linejoin:miter;stroke-opacity:1;display:inline" id="path3111" d="M 433,127.36218 L 476.3,102.36218 L 519.6,127.36218 L 476.3,152.36218 L 433,127.36218 z"/><path style="opacity:1;fill:#0f0;fill-opacity:1;fill-rule:evenodd;stroke:#000;stroke-width:1px;stroke-linecap:butt;stroke-linejoin:miter;stroke-opacity:1;display:inline" id="path2995" d="M 346.4,152.36218 L 389.7,127.36218 L 433,152.36218 L 389.7,177.36218 L 346.4,152.36218 z"/><path style="opacity:1;fill:#0f0;fill-opacity:1;fill-rule:evenodd;stroke:#000;stroke-width:1px;stroke-linecap:butt;stroke-linejoin:miter;stroke-opacity:1;display:inline" id="path2997" d="M 346.4,202.36218 L 389.7,177.36218 L 433,202.36218 L 389.7,227.36218 L 346.4,202.36218 z"/><path style="opacity:1;fill:red;fill-opacity:1;fill-rule:evenodd;stroke:#000;stroke-width:1px;stroke-linecap:butt;stroke-linejoin:miter;stroke-opacity:1;display:inline" id="path3031" d="M 476.3,127.36218 L 476.3,152.36218 L 433,177.36217 L 433,152.36218 L 476.3,127.36218 z"/><path style="opacity:1;fill:gray;fill-opacity:1;fill-rule:evenodd;stroke:#000;stroke-width:1px;stroke-linecap:butt;stroke-linejoin:miter;stroke-opacity:1;display:inline" id="path3107" d="M 433,177.36218 L 476.3,152.36218 L 519.6,177.36218 L 476.3,202.36218 L 433,177.36218 z"/><path style="opacity:1;fill:#00f;fill-opacity:1;fill-rule:evenodd;stroke:#000;stroke-width:1px;stroke-linecap:butt;stroke-linejoin:miter;stroke-opacity:1;display:inline" id="path3033" d="M 476.3,177.36218 L 476.3,202.36218 L 433,227.36217 L 433,202.36218 L 476.3,177.36218 z"/><path style="opacity:1;fill:gray;fill-opacity:1;fill-rule:evenodd;stroke:#000;stroke-width:1px;stroke-linecap:butt;stroke-linejoin:miter;stroke-opacity:1;display:inline" id="path3101" d="M 433,227.36218 L 476.3,202.36218 L 519.6,227.36218 L 476.3,252.36218 L 433,227.36218 z"/><path style="opacity:1;fill:#0f0;fill-opacity:1;fill-rule:evenodd;stroke:#000;stroke-width:1px;stroke-linecap:butt;stroke-linejoin:miter;stroke-opacity:1;display:inline" id="path3005" d="M 259.8,52.36218 L 303.1,27.362186 L 346.4,52.36218 L 303.1,77.36218 L 259.8,52.36218 z"/><path style="opacity:1;fill:red;fill-opacity:1;fill-rule:evenodd;stroke:#000;stroke-width:1px;stroke-linecap:butt;stroke-linejoin:miter;stroke-opacity:1;display:inline" id="path3007" d="M 303.1,77.36218 L 346.4,52.36218 L 389.7,77.36218 L 346.4,102.36218 L 303.1,77.36218 z"/><path style="opacity:1;fill:#00f;fill-opacity:1;fill-rule:evenodd;stroke:#000;stroke-width:1px;stroke-linecap:butt;stroke-linejoin:miter;stroke-opacity:1;display:inline" id="path3009" d="M 303.1,27.362186 L 346.4,2.3621852 L 389.7,27.362186 L 346.4,52.36218 L 303.1,27.362186 z"/><path id="path3721" d="M 389.7,277.36218 L 389.7,302.36218 L 346.4,327.36217 L 346.4,302.36218 L 389.7,277.36218 z" style="opacity:1;fill:#000;fill-opacity:.50196081000000004;fill-rule:evenodd;stroke:none;stroke-width:1px;stroke-linecap:butt;stroke-linejoin:miter;stroke-opacity:1;display:inline"/><path style="opacity:1;fill:gray;fill-opacity:1;fill-rule:evenodd;stroke:#000;stroke-width:1px;stroke-linecap:butt;stroke-linejoin:miter;stroke-opacity:1;display:inline" id="path3113" d="M 389.7,102.36218 L 433,77.362183 L 476.3,102.36218 L 433,127.36218 L 389.7,102.36218 z"/><path id="path3723" d="M 303.1,402.36218 L 346.4,377.36218 L 346.4,352.36218 L 303.1,377.36218 L 303.1,402.36218 z" style="fill:#000;fill-opacity:.50196081000000004;fill-rule:evenodd;stroke:none;stroke-width:1px;stroke-linecap:butt;stroke-linejoin:miter;stroke-opacity:1"/><path style="opacity:1;fill:#0f0;fill-opacity:1;fill-rule:evenodd;stroke:#000;stroke-width:1px;stroke-linecap:butt;stroke-linejoin:miter;stroke-opacity:1;display:inline" id="path3011" d="M 346.4,52.36218 L 389.7,27.362186 L 433,52.36218 L 389.7,77.36218 L 346.4,52.36218 z"/><path id="path3725" d="M 346.4,377.36218 L 389.7,352.36218 L 389.7,327.36218 L 346.4,352.36218 L 346.4,377.36218 z" style="fill:#000;fill-opacity:.50196081000000004;fill-rule:evenodd;stroke:none;stroke-width:1px;stroke-linecap:butt;stroke-linejoin:miter;stroke-opacity:1"/><path style="fill:#0f0;fill-opacity:1;fill-rule:evenodd;stroke:#000;stroke-width:1px;stroke-linecap:butt;stroke-linejoin:miter;stroke-opacity:1" id="path3029" d="M 433,52.362183 L 433,77.362183 L 389.7,102.36218 L 389.7,77.362183 L 433,52.362183 z"/><path id="path3727" d="M 476.3,127.36218 L 476.3,152.36218 L 433,177.36217 L 433,152.36218 L 476.3,127.36218 z" style="opacity:1;fill:#000;fill-opacity:.50196081000000004;fill-rule:evenodd;stroke:none;stroke-width:1px;stroke-linecap:butt;stroke-linejoin:miter;stroke-opacity:1;display:inline"/><path id="path3729" d="M 476.3,177.36218 L 476.3,202.36218 L 433,227.36217 L 433,202.36218 L 476.3,177.36218 z" style="opacity:1;fill:#000;fill-opacity:.50196081000000004;fill-rule:evenodd;stroke:none;stroke-width:1px;stroke-linecap:butt;stroke-linejoin:miter;stroke-opacity:1;display:inline"/><path style="opacity:1;fill:red;fill-opacity:1;fill-rule:evenodd;stroke:#000;stroke-width:1px;stroke-linecap:butt;stroke-linejoin:miter;stroke-opacity:1;display:inline" id="path3017" d="M 389.7,127.36218 L 433,102.36218 L 476.3,127.36218 L 433,152.36218 L 389.7,127.36218 z"/><path id="path3731" d="M 433,52.362183 L 433,77.362183 L 389.7,102.36218 L 389.7,77.362183 L 433,52.362183 z" style="fill:#000;fill-opacity:.50196081000000004;fill-rule:evenodd;stroke:none;stroke-width:1px;stroke-linecap:butt;stroke-linejoin:miter;stroke-opacity:1"/><path style="opacity:1;fill:red;fill-opacity:1;fill-rule:evenodd;stroke:#000;stroke-width:1px;stroke-linecap:butt;stroke-linejoin:miter;stroke-opacity:1;display:inline" id="path3035" d="M 476.3,227.36218 L 476.3,252.36218 L 433,277.36217 L 433,252.36218 L 476.3,227.36218 z"/><path id="path3733" d="M 476.3,227.36218 L 476.3,252.36218 L 433,277.36217 L 433,252.36218 L 476.3,227.36218 z" style="opacity:1;fill:#000;fill-opacity:.50196081000000004;fill-rule:evenodd;stroke:none;stroke-width:1px;stroke-linecap:butt;stroke-linejoin:miter;stroke-opacity:1;display:inline"/><path style="opacity:1;fill:#0f0;fill-opacity:1;fill-rule:evenodd;stroke:#000;stroke-width:1px;stroke-linecap:butt;stroke-linejoin:miter;stroke-opacity:1;display:inline" id="path3039" d="M 433,252.36219 L 433,277.36219 L 389.7,302.36218 L 389.7,277.36219 L 433,252.36219 z"/><path id="path3735" d="M 433,252.36219 L 433,277.36219 L 389.7,302.36218 L 389.7,277.36219 L 433,252.36219 z" style="opacity:1;fill:#000;fill-opacity:.50196081000000004;fill-rule:evenodd;stroke:none;stroke-width:1px;stroke-linecap:butt;stroke-linejoin:miter;stroke-opacity:1;display:inline"/><path style="fill:gray;fill-opacity:1;fill-rule:evenodd;stroke:#000;stroke-width:1px;stroke-linecap:butt;stroke-linejoin:miter;stroke-opacity:1" id="path3041" d="M 0,227.36218 L 0,252.36218 L 43.3,277.36218 L 43.3,252.36218 L 0,227.36218 z"/><path style="opacity:1;fill:gray;fill-opacity:1;fill-rule:evenodd;stroke:#000;stroke-width:1px;stroke-linecap:butt;stroke-linejoin:miter;stroke-opacity:1;display:inline" id="path3043" d="M 43.3,252.36218 L 43.3,277.36218 L 86.6,302.36218 L 86.6,277.36218 L 43.3,252.36218 z"/><path style="opacity:1;fill:gray;fill-opacity:1;fill-rule:evenodd;stroke:#000;stroke-width:1px;stroke-linecap:butt;stroke-linejoin:miter;stroke-opacity:1;display:inline" id="path3045" d="M 86.6,277.36218 L 86.6,302.36218 L 129.9,327.36218 L 129.9,302.36218 L 86.6,277.36218 z"/><path style="opacity:1;fill:gray;fill-opacity:1;fill-rule:evenodd;stroke:#000;stroke-width:1px;stroke-linecap:butt;stroke-linejoin:miter;stroke-opacity:1;display:inline" id="path3047" d="M 129.9,302.36218 L 129.9,327.36218 L 173.2,352.36218 L 173.2,327.36218 L 129.9,302.36218 z"/><path style="opacity:1;fill:gray;fill-opacity:1;fill-rule:evenodd;stroke:#000;stroke-width:1px;stroke-linecap:butt;stroke-linejoin:miter;stroke-opacity:1;display:inline" id="path3049" d="M 173.2,327.36218 L 173.2,352.36218 L 216.5,377.36218 L 216.5,352.36218 L 173.2,327.36218 z"/><path style="opacity:1;fill:gray;fill-opacity:1;fill-rule:evenodd;stroke:#000;stroke-width:1px;stroke-linecap:butt;stroke-linejoin:miter;stroke-opacity:1;display:inline" id="path3051" d="M 216.5,352.36218 L 216.5,377.36218 L 259.8,402.36218 L 259.8,377.36218 L 216.5,352.36218 z"/><path style="opacity:1;fill:gray;fill-opacity:1;fill-rule:evenodd;stroke:#000;stroke-width:1px;stroke-linecap:butt;stroke-linejoin:miter;stroke-opacity:1;display:inline" id="path3053" d="M 259.8,377.36218 L 259.8,402.36218 L 303.1,427.36218 L 303.1,402.36218 L 259.8,377.36218 z"/><path style="fill:gray;fill-opacity:1;fill-rule:evenodd;stroke:#000;stroke-width:1px;stroke-linecap:butt;stroke-linejoin:miter;stroke-opacity:1" id="path3055" d="M 345.9,452.86218 L 389.2,427.86218 L 389.2,402.86218 L 345.9,427.86218 L 345.9,452.86218 z"/><path style="opacity:1;fill:gray;fill-opacity:1;fill-rule:evenodd;stroke:#000;stroke-width:1px;stroke-linecap:butt;stroke-linejoin:miter;stroke-opacity:1;display:inline" id="path3057" d="M 303.1,402.36218 L 303.1,427.36218 L 346.4,452.36218 L 346.4,427.36218 L 303.1,402.36218 z"/><path style="opacity:1;fill:gray;fill-opacity:1;fill-rule:evenodd;stroke:#000;stroke-width:1px;stroke-linecap:butt;stroke-linejoin:miter;stroke-opacity:1;display:inline" id="path3059" d="M 303.1,402.36218 L 346.4,377.36218 L 389.7,402.36218 L 346.4,427.36218 L 303.1,402.36218 z"/><path style="opacity:1;fill:gray;fill-opacity:1;fill-rule:evenodd;stroke:#000;stroke-width:1px;stroke-linecap:butt;stroke-linejoin:miter;stroke-opacity:1;display:inline" id="path3061" d="M 389.2,427.86218 L 432.5,402.86218 L 432.5,377.86218 L 389.2,402.86218 L 389.2,427.86218 z"/><path style="opacity:1;fill:gray;fill-opacity:1;fill-rule:evenodd;stroke:#000;stroke-width:1px;stroke-linecap:butt;stroke-linejoin:miter;stroke-opacity:1;display:inline" id="path3063" d="M 346.4,377.36218 L 389.7,352.36218 L 433,377.36218 L 389.7,402.36218 L 346.4,377.36218 z"/><path style="opacity:1;fill:gray;fill-opacity:1;fill-rule:evenodd;stroke:#000;stroke-width:1px;stroke-linecap:butt;stroke-linejoin:miter;stroke-opacity:1;display:inline" id="path3065" d="M 432.5,402.86218 L 475.8,377.86218 L 475.8,352.86218 L 432.5,377.86218 L 432.5,402.86218 z"/><path style="opacity:1;fill:gray;fill-opacity:1;fill-rule:evenodd;stroke:#000;stroke-width:1px;stroke-linecap:butt;stroke-linejoin:miter;stroke-opacity:1;display:inline" id="path3067" d="M 389.7,352.36218 L 433,327.36218 L 476.3,352.36218 L 433,377.36218 L 389.7,352.36218 z"/><path style="opacity:1;fill:gray;fill-opacity:1;fill-rule:evenodd;stroke:#000;stroke-width:1px;stroke-linecap:butt;stroke-linejoin:miter;stroke-opacity:1;display:inline" id="path3069" d="M 475.8,377.86218 L 519.1,352.86218 L 519.1,327.86218 L 475.8,352.86218 L 475.8,377.86218 z"/><path style="opacity:1;fill:gray;fill-opacity:1;fill-rule:evenodd;stroke:#000;stroke-width:1px;stroke-linecap:butt;stroke-linejoin:miter;stroke-opacity:1;display:inline" id="path3071" d="M 433,327.36218 L 476.3,302.36218 L 519.6,327.36218 L 476.3,352.36218 L 433,327.36218 z"/><path style="opacity:1;fill:gray;fill-opacity:1;fill-rule:evenodd;stroke:#000;stroke-width:1px;stroke-linecap:butt;stroke-linejoin:miter;stroke-opacity:1;display:inline" id="path3075" d="M 389.7,302.36218 L 433,277.36218 L 476.3,302.36218 L 433,327.36218 L 389.7,302.36218 z"/><path style="opacity:1;fill:gray;fill-opacity:1;fill-rule:evenodd;stroke:#000;stroke-width:1px;stroke-linecap:butt;stroke-linejoin:miter;stroke-opacity:1;display:inline" id="path3077" d="M 433,277.36218 L 476.3,252.36218 L 519.6,277.36218 L 476.3,302.36218 L 433,277.36218 z"/><path style="opacity:1;fill:gray;fill-opacity:1;fill-rule:evenodd;stroke:#000;stroke-width:1px;stroke-linecap:butt;stroke-linejoin:miter;stroke-opacity:1;display:inline" id="path3079" d="M 519.1,352.86218 L 562.4,327.86218 L 562.4,302.86218 L 519.1,327.86218 L 519.1,352.86218 z"/><path style="opacity:1;fill:gray;fill-opacity:1;fill-rule:evenodd;stroke:#000;stroke-width:1px;stroke-linecap:butt;stroke-linejoin:miter;stroke-opacity:1;display:inline" id="path3081" d="M 476.3,302.36218 L 519.6,277.36218 L 562.9,302.36218 L 519.6,327.36218 L 476.3,302.36218 z"/><path style="opacity:1;fill:gray;fill-opacity:1;fill-rule:evenodd;stroke:#000;stroke-width:1px;stroke-linecap:butt;stroke-linejoin:miter;stroke-opacity:1;display:inline" id="path3083" d="M 562.4,327.86218 L 605.7,302.86218 L 605.7,277.86218 L 562.4,302.86218 L 562.4,327.86218 z"/><path style="opacity:1;fill:gray;fill-opacity:1;fill-rule:evenodd;stroke:#000;stroke-width:1px;stroke-linecap:butt;stroke-linejoin:miter;stroke-opacity:1;display:inline" id="path3085" d="M 519.6,277.36218 L 562.9,252.36218 L 606.2,277.36218 L 562.9,302.36218 L 519.6,277.36218 z"/><path style="opacity:1;fill:gray;fill-opacity:1;fill-rule:evenodd;stroke:#000;stroke-width:1px;stroke-linecap:butt;stroke-linejoin:miter;stroke-opacity:1;display:inline" id="path3087" d="M 476.3,252.36218 L 519.6,227.36218 L 562.9,252.36218 L 519.6,277.36218 L 476.3,252.36218 z"/><path style="opacity:1;fill:gray;fill-opacity:1;fill-rule:evenodd;stroke:#000;stroke-width:1px;stroke-linecap:butt;stroke-linejoin:miter;stroke-opacity:1;display:inline" id="path3089" d="M 519.6,227.36218 L 562.9,202.36218 L 606.2,227.36218 L 562.9,252.36218 L 519.6,227.36218 z"/><path style="opacity:1;fill:gray;fill-opacity:1;fill-rule:evenodd;stroke:#000;stroke-width:1px;stroke-linecap:butt;stroke-linejoin:miter;stroke-opacity:1;display:inline" id="path3091" d="M 605.7,302.86218 L 649,277.86218 L 649,252.86218 L 605.7,277.86218 L 605.7,302.86218 z"/><path style="opacity:1;fill:gray;fill-opacity:1;fill-rule:evenodd;stroke:#000;stroke-width:1px;stroke-linecap:butt;stroke-linejoin:miter;stroke-opacity:1;display:inline" id="path3093" d="M 562.9,252.36218 L 606.2,227.36218 L 649.5,252.36218 L 606.2,277.36218 L 562.9,252.36218 z"/><path style="opacity:1;fill:gray;fill-opacity:1;fill-rule:evenodd;stroke:#000;stroke-width:1px;stroke-linecap:butt;stroke-linejoin:miter;stroke-opacity:1;display:inline" id="path3095" d="M 649,277.86218 L 692.3,252.86218 L 692.3,227.86218 L 649,252.86218 L 649,277.86218 z"/><path style="opacity:1;fill:gray;fill-opacity:1;fill-rule:evenodd;stroke:#000;stroke-width:1px;stroke-linecap:butt;stroke-linejoin:miter;stroke-opacity:1;display:inline" id="path3097" d="M 606.2,227.36218 L 649.5,202.36218 L 692.8,227.36218 L 649.5,252.36218 L 606.2,227.36218 z"/><path style="opacity:1;fill:gray;fill-opacity:1;fill-rule:evenodd;stroke:#000;stroke-width:1px;stroke-linecap:butt;stroke-linejoin:miter;stroke-opacity:1;display:inline" id="path3099" d="M 562.9,202.36218 L 606.2,177.36218 L 649.5,202.36218 L 606.2,227.36218 L 562.9,202.36218 z"/><path style="opacity:1;fill:gray;fill-opacity:1;fill-rule:evenodd;stroke:#000;stroke-width:1px;stroke-linecap:butt;stroke-linejoin:miter;stroke-opacity:1;display:inline" id="path3103" d="M 476.3,202.36218 L 519.6,177.36218 L 562.9,202.36218 L 519.6,227.36218 L 476.3,202.36218 z"/><path style="opacity:1;fill:gray;fill-opacity:1;fill-rule:evenodd;stroke:#000;stroke-width:1px;stroke-linecap:butt;stroke-linejoin:miter;stroke-opacity:1;display:inline" id="path3105" d="M 519.6,177.36218 L 562.9,152.36218 L 606.2,177.36218 L 562.9,202.36218 L 519.6,177.36218 z"/><path style="opacity:1;fill:gray;fill-opacity:1;fill-rule:evenodd;stroke:#000;stroke-width:1px;stroke-linecap:butt;stroke-linejoin:miter;stroke-opacity:1;display:inline" id="path3109" d="M 476.3,152.36218 L 519.6,127.36218 L 562.9,152.36218 L 519.6,177.36218 L 476.3,152.36218 z"/><path style="opacity:1;fill:#0f0;fill-opacity:1;fill-rule:evenodd;stroke:#000;stroke-width:1px;stroke-linecap:butt;stroke-linejoin:miter;stroke-opacity:1;display:inline" id="path3013" d="M 346.4,102.36218 L 389.7,77.36218 L 433,102.36218 L 389.7,127.36218 L 346.4,102.36218 z"/><path style="opacity:1;fill:#00f;fill-opacity:1;fill-rule:evenodd;stroke:#000;stroke-width:1px;stroke-linecap:butt;stroke-linejoin:miter;stroke-opacity:1;display:inline" id="path2999" d="M 389.7,177.36218 L 433,152.36218 L 476.3,177.36218 L 433,202.36218 L 389.7,177.36218 z"/><path style="opacity:1;fill:red;fill-opacity:1;fill-rule:evenodd;stroke:#000;stroke-width:1px;stroke-linecap:butt;stroke-linejoin:miter;stroke-opacity:1;display:inline" id="path3001" d="M 389.7,227.36218 L 433,202.36218 L 476.3,227.36218 L 433,252.36218 L 389.7,227.36218 z"/><path style="opacity:1;fill:#00f;fill-opacity:1;fill-rule:evenodd;stroke:#000;stroke-width:1px;stroke-linecap:butt;stroke-linejoin:miter;stroke-opacity:1;display:inline" id="path2951" d="M 303.1,327.36218 L 346.4,302.36218 L 389.7,327.36218 L 346.4,352.36218 L 303.1,327.36218 z"/><path id="path4505" d="M 345.9,452.86218 L 389.2,427.86218 L 389.2,402.86218 L 345.9,427.86218 L 345.9,452.86218 z" style="fill:#000;fill-opacity:.50196081;fill-rule:evenodd;stroke:none;stroke-width:1px;stroke-linecap:butt;stroke-linejoin:miter;stroke-opacity:1"/><path id="path4507" d="M 389.2,427.86218 L 432.5,402.86218 L 432.5,377.86218 L 389.2,402.86218 L 389.2,427.86218 z" style="opacity:1;fill:#000;fill-opacity:.50196081;fill-rule:evenodd;stroke:none;stroke-width:1px;stroke-linecap:butt;stroke-linejoin:miter;stroke-opacity:1;display:inline"/><path id="path4509" d="M 432.5,402.86218 L 475.8,377.86218 L 475.8,352.86218 L 432.5,377.86218 L 432.5,402.86218 z" style="opacity:1;fill:#000;fill-opacity:.50196081;fill-rule:evenodd;stroke:none;stroke-width:1px;stroke-linecap:butt;stroke-linejoin:miter;stroke-opacity:1;display:inline"/><path id="path4511" d="M 475.8,377.86218 L 519.1,352.86218 L 519.1,327.86218 L 475.8,352.86218 L 475.8,377.86218 z" style="opacity:1;fill:#000;fill-opacity:.50196081;fill-rule:evenodd;stroke:none;stroke-width:1px;stroke-linecap:butt;stroke-linejoin:miter;stroke-opacity:1;display:inline"/><path id="path4513" d="M 519.1,352.86218 L 562.4,327.86218 L 562.4,302.86218 L 519.1,327.86218 L 519.1,352.86218 z" style="opacity:1;fill:#000;fill-opacity:.50196081;fill-rule:evenodd;stroke:none;stroke-width:1px;stroke-linecap:butt;stroke-linejoin:miter;stroke-opacity:1;display:inline"/><path id="path4515" d="M 562.4,327.86218 L 605.7,302.86218 L 605.7,277.86218 L 562.4,302.86218 L 562.4,327.86218 z" style="opacity:1;fill:#000;fill-opacity:.50196081;fill-rule:evenodd;stroke:none;stroke-width:1px;stroke-linecap:butt;stroke-linejoin:miter;stroke-opacity:1;display:inline"/><path id="path4517" d="M 605.7,302.86218 L 649,277.86218 L 649,252.86218 L 605.7,277.86218 L 605.7,302.86218 z" style="opacity:1;fill:#000;fill-opacity:.50196081;fill-rule:evenodd;stroke:none;stroke-width:1px;stroke-linecap:butt;stroke-linejoin:miter;stroke-opacity:1;display:inline"/><path id="path4519" d="M 649,277.86218 L 692.3,252.86218 L 692.3,227.86218 L 649,252.86218 L 649,277.86218 z" style="opacity:1;fill:#000;fill-opacity:.50196081;fill-rule:evenodd;stroke:none;stroke-width:1px;stroke-linecap:butt;stroke-linejoin:miter;stroke-opacity:1;display:inline"/></g></svg>