<svg xmlns="http://www.w3.org/2000/svg" xmlns:xlink="http://www.w3.org/1999/xlink" width="523pt" height="176pt" viewBox="0 0 523 175.5"><g id="graph0" class="graph" transform="scale(1 1) rotate(0) translate(4 171.5)"><title>G</title><polygon fill="#fff" stroke="none" points="-4 4 -4 -171.5 519 -171.5 519 4 -4 4"/><g id="node1" class="node"><title>MMALCamera</title><polygon fill="#7be" stroke="#477" points="2.5 -.5 2.5 -57.5 108.5 -57.5 108.5 -.5 2.5 -.5"/><text x="44" y="-26.5" font-family="Sans" font-size="10" text-anchor="middle">MMALCamera</text><polyline fill="none" stroke="#477" points="85.5 -.5 85.5 -57.5"/><text x="97" y="-45.5" font-family="Sans" font-size="10" text-anchor="middle">0</text><polyline fill="none" stroke="#477" points="85.5 -38.5 108.5 -38.5"/><text x="97" y="-26.5" font-family="Sans" font-size="10" text-anchor="middle">1</text><polyline fill="none" stroke="#477" points="85.5 -19.5 108.5 -19.5"/><text x="97" y="-7.5" font-family="Sans" font-size="10" text-anchor="middle">2</text></g><g id="node2" class="node"><title>MMALImageEncoder</title><polygon fill="#7be" stroke="#477" points="204 -76 204 -112 364 -112 364 -76 204 -76"/><text x="215.5" y="-91.5" font-family="Sans" font-size="10" text-anchor="middle">0</text><polyline fill="none" stroke="#477" points="227 -76 227 -112"/><text x="284" y="-91.5" font-family="Sans" font-size="10" text-anchor="middle">MMALImageEncoder</text><polyline fill="none" stroke="#477" points="341 -76 341 -112"/><text x="352.5" y="-91.5" font-family="Sans" font-size="10" text-anchor="middle">0</text></g><g id="node5" class="node"><title>FileOutput</title><polygon fill="#7be" stroke="#477" points="509 -112 451 -112 451 -76 515 -76 515 -106 509 -112"/><polyline fill="none" stroke="#477" points="509 -112 509 -106"/><polyline fill="none" stroke="#477" points="515 -106 509 -106"/><text x="483" y="-91.5" font-family="Sans" font-size="10" text-anchor="middle">image.jpg</text></g><g id="edge2" class="edge"><title>MMALImageEncoder:output-&gt;FileOutput</title><path fill="none" stroke="#477" d="M364,-94C389.467,-94 418.025,-94 440.668,-94"/><polygon fill="#477" stroke="#477" points="440.944 -97.5 450.944 -94 440.944 -90.5 440.944 -97.5"/><text x="407.5" y="-97" font-family="Sans" font-size="10" text-anchor="middle">callback fn</text><text x="385" y="-86" font-family="Sans" font-size="10" text-anchor="middle">JPEG</text><text x="385" y="-75" font-family="Sans" font-size="10" text-anchor="middle">640x480</text></g><g id="node3" class="node"><title>MMALRenderer</title><polygon fill="#7be" stroke="#477" points="0 -131 0 -167 111 -167 111 -131 0 -131"/><text x="11.5" y="-146.5" font-family="Sans" font-size="10" text-anchor="middle">0</text><polyline fill="none" stroke="#477" points="23 -131 23 -167"/><text x="67" y="-146.5" font-family="Sans" font-size="10" text-anchor="middle">MMALRenderer</text></g><g id="node4" class="node"><title>FileInput</title><polygon fill="#7be" stroke="#477" points="85 -112 20 -112 20 -76 91 -76 91 -106 85 -112"/><polyline fill="none" stroke="#477" points="85 -112 85 -106"/><polyline fill="none" stroke="#477" points="91 -106 85 -106"/><text x="55.5" y="-91.5" font-family="Sans" font-size="10" text-anchor="middle">image.data</text></g><g id="edge1" class="edge"><title>FileInput-&gt;MMALImageEncoder:input</title><path fill="none" stroke="#477" d="M91.0711,-94C118.394,-94 157.813,-94 193.918,-94"/><polygon fill="#477" stroke="#477" points="194 -97.5 204 -94 194 -90.5 194 -97.5"/><text x="157.5" y="-97" font-family="Sans" font-size="10" text-anchor="middle">send_buffer</text><text x="183" y="-86" font-family="Sans" font-size="10" text-anchor="middle">RGB3</text><text x="183" y="-75" font-family="Sans" font-size="10" text-anchor="middle">640x480</text></g></g></svg>