<svg xmlns="http://www.w3.org/2000/svg" xmlns:xlink="http://www.w3.org/1999/xlink" width="732" height="134pt" viewBox="0 0 549 133.5"><g id="graph0" class="graph" transform="scale(1 1) rotate(0) translate(4 129.5)"><title>G</title><polygon fill="#fff" stroke="none" points="-4 4 -4 -129.5 545 -129.5 545 4 -4 4"/><g id="node1" class="node"><title>MMALCamera</title><polygon fill="#7be" stroke="#477" points="2.5 -12.5 2.5 -69.5 108.5 -69.5 108.5 -12.5 2.5 -12.5"/><text x="44" y="-38.5" font-family="Sans" font-size="10" text-anchor="middle">MMALCamera</text><polyline fill="none" stroke="#477" points="85.5 -12.5 85.5 -69.5"/><text x="97" y="-57.5" font-family="Sans" font-size="10" text-anchor="middle">0</text><polyline fill="none" stroke="#477" points="85.5 -50.5 108.5 -50.5"/><text x="97" y="-38.5" font-family="Sans" font-size="10" text-anchor="middle">1</text><polyline fill="none" stroke="#477" points="85.5 -31.5 108.5 -31.5"/><text x="97" y="-19.5" font-family="Sans" font-size="10" text-anchor="middle">2</text></g><g id="node2" class="node"><title>MMALImageEncoder</title><polygon fill="#7be" stroke="#477" points="230 -4 230 -40 390 -40 390 -4 230 -4"/><text x="241.5" y="-19.5" font-family="Sans" font-size="10" text-anchor="middle">0</text><polyline fill="none" stroke="#477" points="253 -4 253 -40"/><text x="310" y="-19.5" font-family="Sans" font-size="10" text-anchor="middle">MMALImageEncoder</text><polyline fill="none" stroke="#477" points="367 -4 367 -40"/><text x="378.5" y="-19.5" font-family="Sans" font-size="10" text-anchor="middle">0</text></g><g id="edge1" class="edge"><title>MMALCamera:still-&gt;MMALImageEncoder:input</title><path fill="none" stroke="#477" d="M109.5,-22C159.499,-22 174.489,-22 219.839,-22"/><polygon fill="#477" stroke="#477" points="220 -25.5 230 -22 220 -18.5 220 -25.5"/><text x="170.5" y="-25" font-family="Sans" font-size="10" text-anchor="middle">MMALConnection</text><text x="209" y="-14" font-family="Sans" font-size="10" text-anchor="middle">OPQV</text><text x="209" y="-3" font-family="Sans" font-size="10" text-anchor="middle">640x480</text><text x="130.5" y="-14" font-family="Sans" font-size="10" text-anchor="middle">OPQV</text><text x="130.5" y="-3" font-family="Sans" font-size="10" text-anchor="middle">640x480</text></g><g id="node4" class="node"><title>FileOutput</title><polygon fill="#7be" stroke="#477" points="535 -40 477 -40 477 -4 541 -4 541 -34 535 -40"/><polyline fill="none" stroke="#477" points="535 -40 535 -34"/><polyline fill="none" stroke="#477" points="541 -34 535 -34"/><text x="509" y="-19.5" font-family="Sans" font-size="10" text-anchor="middle">image.jpg</text></g><g id="edge2" class="edge"><title>MMALImageEncoder:output-&gt;FileOutput</title><path fill="none" stroke="#477" d="M390,-22C415.467,-22 444.025,-22 466.668,-22"/><polygon fill="#477" stroke="#477" points="466.944 -25.5 476.944 -22 466.944 -18.5 466.944 -25.5"/><text x="433.5" y="-25" font-family="Sans" font-size="10" text-anchor="middle">callback fn</text><text x="411" y="-14" font-family="Sans" font-size="10" text-anchor="middle">JPEG</text><text x="411" y="-3" font-family="Sans" font-size="10" text-anchor="middle">640x480</text></g><g id="node3" class="node"><title>MMALRenderer</title><polygon fill="#7be" stroke="#477" points="0 -89 0 -125 111 -125 111 -89 0 -89"/><text x="11.5" y="-104.5" font-family="Sans" font-size="10" text-anchor="middle">0</text><polyline fill="none" stroke="#477" points="23 -89 23 -125"/><text x="67" y="-104.5" font-family="Sans" font-size="10" text-anchor="middle">MMALRenderer</text></g></g></svg>