<svg xmlns="http://www.w3.org/2000/svg" xmlns:xlink="http://www.w3.org/1999/xlink" width="344pt" height="100" viewBox="0 0 344 74.5"><g id="graph0" class="graph" transform="scale(1 1) rotate(0) translate(4 70.5)"><title>G</title><polygon fill="#fff" stroke="none" points="-4 4 -4 -70.5 340 -70.5 340 4 -4 4"/><g id="node1" class="node"><title>MMALCamera</title><polygon fill="#7be" stroke="#477" points="0 -.5 0 -57.5 106 -57.5 106 -.5 0 -.5"/><text x="41.5" y="-26.5" font-family="Sans" font-size="10" text-anchor="middle">MMALCamera</text><polyline fill="none" stroke="#477" points="83 -.5 83 -57.5"/><text x="94.5" y="-45.5" font-family="Sans" font-size="10" text-anchor="middle">0</text><polyline fill="none" stroke="#477" points="83 -38.5 106 -38.5"/><text x="94.5" y="-26.5" font-family="Sans" font-size="10" text-anchor="middle">1</text><polyline fill="none" stroke="#477" points="83 -19.5 106 -19.5"/><text x="94.5" y="-7.5" font-family="Sans" font-size="10" text-anchor="middle">2</text></g><g id="node2" class="node"><title>MMALRenderer</title><polygon fill="#7be" stroke="#477" points="225 -30 225 -66 336 -66 336 -30 225 -30"/><text x="236.5" y="-45.5" font-family="Sans" font-size="10" text-anchor="middle">0</text><polyline fill="none" stroke="#477" points="248 -30 248 -66"/><text x="292" y="-45.5" font-family="Sans" font-size="10" text-anchor="middle">MMALRenderer</text></g><g id="edge1" class="edge"><title>MMALCamera:preview-&gt;MMALRenderer:input</title><path fill="none" stroke="#477" d="M106,-48C155.377,-48 170.18,-48 214.965,-48"/><polygon fill="#477" stroke="#477" points="215 -51.5 225 -48 215 -44.5 215 -51.5"/><text x="165.5" y="-51" font-family="Sans" font-size="10" text-anchor="middle">MMALConnection</text><text x="204" y="-40" font-family="Sans" font-size="10" text-anchor="middle">OPQV</text><text x="204" y="-29" font-family="Sans" font-size="10" text-anchor="middle">640x480</text><text x="127" y="-40" font-family="Sans" font-size="10" text-anchor="middle">OPQV</text><text x="127" y="-29" font-family="Sans" font-size="10" text-anchor="middle">640x480</text></g></g></svg>