<svg xmlns="http://www.w3.org/2000/svg" xmlns:xlink="http://www.w3.org/1999/xlink" width="277pt" height="134pt" viewBox="0 0 277 133.5"><g id="graph0" class="graph" transform="scale(1 1) rotate(0) translate(4 129.5)"><title>G</title><polygon fill="#fff" stroke="none" points="-4 4 -4 -129.5 273 -129.5 273 4 -4 4"/><g id="node1" class="node"><title>MMALCamera</title><polygon fill="#7be" stroke="#477" points="2.5 -12.5 2.5 -69.5 108.5 -69.5 108.5 -12.5 2.5 -12.5"/><text x="44" y="-38.5" font-family="Sans" font-size="10" text-anchor="middle">MMALCamera</text><polyline fill="none" stroke="#477" points="85.5 -12.5 85.5 -69.5"/><text x="97" y="-57.5" font-family="Sans" font-size="10" text-anchor="middle">0</text><polyline fill="none" stroke="#477" points="85.5 -50.5 108.5 -50.5"/><text x="97" y="-38.5" font-family="Sans" font-size="10" text-anchor="middle">1</text><polyline fill="none" stroke="#477" points="85.5 -31.5 108.5 -31.5"/><text x="97" y="-19.5" font-family="Sans" font-size="10" text-anchor="middle">2</text></g><g id="node3" class="node"><title>FileOutput</title><polygon fill="#7be" stroke="#477" points="263 -40 198 -40 198 -4 269 -4 269 -34 263 -40"/><polyline fill="none" stroke="#477" points="263 -40 263 -34"/><polyline fill="none" stroke="#477" points="269 -34 263 -34"/><text x="233.5" y="-19.5" font-family="Sans" font-size="10" text-anchor="middle">image.data</text></g><g id="edge1" class="edge"><title>MMALCamera:still-&gt;FileOutput</title><path fill="none" stroke="#477" d="M109.5,-22C135.333,-22 164.217,-22 187.501,-22"/><polygon fill="#477" stroke="#477" points="187.773 -25.5 197.773 -22 187.773 -18.5 187.773 -25.5"/><text x="154.5" y="-25" font-family="Sans" font-size="10" text-anchor="middle">callback fn</text><text x="130.5" y="-14" font-family="Sans" font-size="10" text-anchor="middle">RGB3</text><text x="130.5" y="-3" font-family="Sans" font-size="10" text-anchor="middle">640x480</text></g><g id="node2" class="node"><title>MMALRenderer</title><polygon fill="#7be" stroke="#477" points="0 -89 0 -125 111 -125 111 -89 0 -89"/><text x="11.5" y="-104.5" font-family="Sans" font-size="10" text-anchor="middle">0</text><polyline fill="none" stroke="#477" points="23 -89 23 -125"/><text x="67" y="-104.5" font-family="Sans" font-size="10" text-anchor="middle">MMALRenderer</text></g></g></svg>